<mxfile host="app.diagrams.net" modified="2023-12-07T00:08:21.917Z" agent="Mozilla/5.0 (Windows NT 10.0; Win64; x64) AppleWebKit/537.36 (KHTML, like Gecko) Chrome/119.0.0.0 Safari/537.36" etag="D1FT8Dt3ZdAyT2Ltigtu" version="22.1.7" type="github">
  <diagram name="Page-1" id="r28tYnbo0mXHtYw1uWg4">
    <mxGraphModel dx="1050" dy="630" grid="1" gridSize="10" guides="1" tooltips="1" connect="1" arrows="1" fold="1" page="1" pageScale="1" pageWidth="827" pageHeight="1169" math="0" shadow="0">
      <root>
        <mxCell id="0" />
        <mxCell id="1" parent="0" />
        <mxCell id="ysFUDAWnv2JTuTBk0uLM-8" value="" style="edgeStyle=orthogonalEdgeStyle;rounded=0;orthogonalLoop=1;jettySize=auto;html=1;" parent="1" source="ysFUDAWnv2JTuTBk0uLM-1" target="ysFUDAWnv2JTuTBk0uLM-4" edge="1">
          <mxGeometry relative="1" as="geometry" />
        </mxCell>
        <mxCell id="ysFUDAWnv2JTuTBk0uLM-1" value="&lt;b&gt;Incoming Email&lt;/b&gt;" style="outlineConnect=0;dashed=0;verticalLabelPosition=bottom;verticalAlign=top;align=center;html=1;shape=mxgraph.aws3.email;fillColor=#D9A741;gradientColor=none;" parent="1" vertex="1">
          <mxGeometry x="60" y="550" width="81" height="61.5" as="geometry" />
        </mxCell>
        <mxCell id="ysFUDAWnv2JTuTBk0uLM-2" value="" style="rounded=1;arcSize=10;dashed=0;fillColor=none;gradientColor=none;strokeWidth=2;" parent="1" vertex="1">
          <mxGeometry x="190" y="300" width="486" height="662" as="geometry" />
        </mxCell>
        <mxCell id="ysFUDAWnv2JTuTBk0uLM-3" value="" style="dashed=0;html=1;shape=mxgraph.aws3.cloud;fillColor=#F58536;gradientColor=none;dashed=0;" parent="1" vertex="1">
          <mxGeometry x="224" y="278" width="52" height="36" as="geometry" />
        </mxCell>
        <mxCell id="ysFUDAWnv2JTuTBk0uLM-10" value="" style="edgeStyle=orthogonalEdgeStyle;rounded=0;orthogonalLoop=1;jettySize=auto;html=1;" parent="1" source="ysFUDAWnv2JTuTBk0uLM-4" target="ysFUDAWnv2JTuTBk0uLM-9" edge="1">
          <mxGeometry relative="1" as="geometry" />
        </mxCell>
        <mxCell id="ysFUDAWnv2JTuTBk0uLM-14" style="edgeStyle=orthogonalEdgeStyle;rounded=0;orthogonalLoop=1;jettySize=auto;html=1;" parent="1" source="ysFUDAWnv2JTuTBk0uLM-4" target="ysFUDAWnv2JTuTBk0uLM-13" edge="1">
          <mxGeometry relative="1" as="geometry" />
        </mxCell>
        <mxCell id="ysFUDAWnv2JTuTBk0uLM-4" value="&lt;b&gt;SES&lt;/b&gt;" style="sketch=0;points=[[0,0,0],[0.25,0,0],[0.5,0,0],[0.75,0,0],[1,0,0],[0,1,0],[0.25,1,0],[0.5,1,0],[0.75,1,0],[1,1,0],[0,0.25,0],[0,0.5,0],[0,0.75,0],[1,0.25,0],[1,0.5,0],[1,0.75,0]];outlineConnect=0;fontColor=#232F3E;fillColor=#DD344C;strokeColor=#ffffff;dashed=0;verticalLabelPosition=bottom;verticalAlign=top;align=center;html=1;fontSize=12;fontStyle=0;aspect=fixed;shape=mxgraph.aws4.resourceIcon;resIcon=mxgraph.aws4.simple_email_service;" parent="1" vertex="1">
          <mxGeometry x="260" y="541.75" width="78" height="78" as="geometry" />
        </mxCell>
        <mxCell id="ysFUDAWnv2JTuTBk0uLM-6" value="" style="edgeStyle=orthogonalEdgeStyle;rounded=0;orthogonalLoop=1;jettySize=auto;html=1;" parent="1" source="ysFUDAWnv2JTuTBk0uLM-5" target="ysFUDAWnv2JTuTBk0uLM-4" edge="1">
          <mxGeometry relative="1" as="geometry" />
        </mxCell>
        <mxCell id="ysFUDAWnv2JTuTBk0uLM-5" value="&lt;b&gt;Route 53&lt;/b&gt;" style="sketch=0;points=[[0,0,0],[0.25,0,0],[0.5,0,0],[0.75,0,0],[1,0,0],[0,1,0],[0.25,1,0],[0.5,1,0],[0.75,1,0],[1,1,0],[0,0.25,0],[0,0.5,0],[0,0.75,0],[1,0.25,0],[1,0.5,0],[1,0.75,0]];outlineConnect=0;fontColor=#232F3E;fillColor=#8C4FFF;strokeColor=#ffffff;dashed=0;verticalLabelPosition=bottom;verticalAlign=top;align=center;html=1;fontSize=12;fontStyle=0;aspect=fixed;shape=mxgraph.aws4.resourceIcon;resIcon=mxgraph.aws4.route_53;" parent="1" vertex="1">
          <mxGeometry x="260" y="370" width="78" height="78" as="geometry" />
        </mxCell>
        <mxCell id="ysFUDAWnv2JTuTBk0uLM-7" value="&lt;ol&gt;&lt;li&gt;Create DKIM records corresponding to verified &quot;Domain Identity&quot; in AWS SES&lt;/li&gt;&lt;li&gt;Create a MX record for each domain/subdomain&lt;/li&gt;&lt;/ol&gt;" style="whiteSpace=wrap;html=1;shape=mxgraph.basic.roundRectCallout;dx=30;dy=15;size=5;boundedLbl=1;align=left;" parent="1" vertex="1">
          <mxGeometry x="320" y="314" width="310" height="60" as="geometry" />
        </mxCell>
        <mxCell id="ysFUDAWnv2JTuTBk0uLM-9" value="&lt;b&gt;S3&lt;/b&gt;" style="sketch=0;points=[[0,0,0],[0.25,0,0],[0.5,0,0],[0.75,0,0],[1,0,0],[0,1,0],[0.25,1,0],[0.5,1,0],[0.75,1,0],[1,1,0],[0,0.25,0],[0,0.5,0],[0,0.75,0],[1,0.25,0],[1,0.5,0],[1,0.75,0]];outlineConnect=0;fontColor=#232F3E;fillColor=#7AA116;strokeColor=#ffffff;dashed=0;verticalLabelPosition=bottom;verticalAlign=top;align=center;html=1;fontSize=12;fontStyle=0;aspect=fixed;shape=mxgraph.aws4.resourceIcon;resIcon=mxgraph.aws4.s3;" parent="1" vertex="1">
          <mxGeometry x="260" y="720" width="78" height="78" as="geometry" />
        </mxCell>
        <mxCell id="ysFUDAWnv2JTuTBk0uLM-11" value="Create a &quot;Email Receiving&quot; rule" style="whiteSpace=wrap;html=1;shape=mxgraph.basic.roundRectCallout;dx=30;dy=15;size=5;boundedLbl=1;align=left;" parent="1" vertex="1">
          <mxGeometry x="316" y="492" width="180" height="50" as="geometry" />
        </mxCell>
        <mxCell id="ysFUDAWnv2JTuTBk0uLM-12" value="" style="sketch=0;outlineConnect=0;fontColor=#232F3E;gradientColor=none;fillColor=#DD344C;strokeColor=none;dashed=0;verticalLabelPosition=bottom;verticalAlign=top;align=center;html=1;fontSize=12;fontStyle=0;aspect=fixed;pointerEvents=1;shape=mxgraph.aws4.addon;" parent="1" vertex="1">
          <mxGeometry x="240" y="710" width="39" height="20" as="geometry" />
        </mxCell>
        <mxCell id="ysFUDAWnv2JTuTBk0uLM-17" style="edgeStyle=orthogonalEdgeStyle;rounded=0;orthogonalLoop=1;jettySize=auto;html=1;" parent="1" source="ysFUDAWnv2JTuTBk0uLM-13" target="ysFUDAWnv2JTuTBk0uLM-16" edge="1">
          <mxGeometry relative="1" as="geometry" />
        </mxCell>
        <mxCell id="ysFUDAWnv2JTuTBk0uLM-13" value="e&lt;b&gt;mail-forwarding&lt;/b&gt;" style="sketch=0;outlineConnect=0;fontColor=#232F3E;gradientColor=none;fillColor=#ED7100;strokeColor=none;dashed=0;verticalLabelPosition=bottom;verticalAlign=top;align=center;html=1;fontSize=12;fontStyle=0;aspect=fixed;pointerEvents=1;shape=mxgraph.aws4.lambda_function;" parent="1" vertex="1">
          <mxGeometry x="469" y="551" width="59" height="59" as="geometry" />
        </mxCell>
        <mxCell id="ysFUDAWnv2JTuTBk0uLM-15" value="" style="sketch=0;outlineConnect=0;fontColor=#232F3E;gradientColor=none;fillColor=#DD344C;strokeColor=none;dashed=0;verticalLabelPosition=bottom;verticalAlign=top;align=center;html=1;fontSize=12;fontStyle=0;aspect=fixed;pointerEvents=1;shape=mxgraph.aws4.addon;" parent="1" vertex="1">
          <mxGeometry x="510" y="690" width="39" height="20" as="geometry" />
        </mxCell>
        <mxCell id="ysFUDAWnv2JTuTBk0uLM-16" value="" style="shape=image;verticalLabelPosition=bottom;labelBackgroundColor=default;verticalAlign=top;aspect=fixed;imageAspect=0;image=data:image/png,iVBORw0KGgoAAAANSUhEUgAAARkAAACsCAYAAABPYNhlAAAgAElEQVR4nOy9ebxdVXn//15r7ekMd8zNzUgmksgQQmSITDKKoCKIqHVCq2hbp9pW+9P+rO3327761daq9adfhyraYqFWEQQEFESQeZ4CMmQgCZcMd77nnnP2uNb6/bHvDQGBJGQ4GfabV16X5Jy99rP3Xfuzn7XW8zwLCgoKCgoKCgoKCgoKCgoKCgoKCgoK9itEqw0o2LvRw5urpv/ZOQDCLzVNbbibJApk97R+a7REa0eUKnXZOXVQdvQ0W21vwd5HITIFAOj+9T3pA789PXn0ruPN6tULzOjm6aY52kljtNOOjvdaC7hABFaDKAMW0CA8EO1dGyi312TH9E2ibWq/d/TRD3gnnvNLNXPBGtk+JWrt1RW0kkJkDlB0/7Pd2VP3HxNe+tXPpM9smElt03Q72uwxTRAG8AEXhDvx/wAGhAIk2JS89whAg02ADIjBxkAZZDuISnefnDZjk/u6E28Pzrrwx2ruoU+qwuM5oChE5gAi27Bmenr/TaeHP/3aZ/SqvtmmOd5LCNaACECWyAVFThxgt7Nh8aLvSiABG4GJQKS5t2M9UL1T13snnnmDf9aFP3aPPPFOWW7PduElFuyFFCJzAJD+/p4l4c++/YnkjmvOMRuGZ1sLQpJ7Kj7gTHxxe0VlW0yKzmTvskA64eFosFnuITlLD78/ePNFF/tveOdPVe9Bw7vo7AV7GYXI7Mck9914Qv1bf/ePetUjS+1YswcfhEMuKq34zU+KjwGyCdExIGdMX+Me/5brKh/9/Jec2Ys2tMCygt1IITL7IcmDNx1X/8pffyV7/MGjbEJZtgHBxIe7ylvZFUyIjq2DbYJod2v+GRdcXv3cv/2l6p5ea7V5BbuGQmT2I7K+lTPH/vrd/5Pe88BRQlIWXSAqgGbvEpcXo/IfZhQYBdHj1iqf/Pv/XfnQ336tpXYV7BIKkdkPMGFdNr/7N19qfP+bn7TjlGUviDa2LDHvEwjyYVwGZhhsjaazZP7a9n+59H3eESc83GrzCl49hcjs4ySP3HpM7fPvvVSv7FssKiDayVd3DHu39/JyCLasTplBwKMZvPW8q9u+eMmFstJRrETtgxQisw9T++c/+Xr4H//+J0BZdpIHy1n2TXF5MRM90zZzz0bNm76m45s/v8BbcmLh1exjFCKzD6IH+rrH/vxN1yd3rFgiuyiL9okP9gdxeTEijzC2/YCv6m2f/4cvli/8wr+12qyC7acQmX2M5OFblo/91QU/N+uHZssp5MFzptVW7WYmVqHMGAhN03vLeVd3fuWq97TarILtoxCZfYjoV//19toXPvQjkrR9y9zL/ui9vBwCiMHUaLrHLHu487s3nyarXUmrzSp4ZQqR2UeIfvHdD4x94c++g0tZdrDvrBrtaiaGT2YI3EXzf9/5o9ter6bOLqKF92IKkdkHGP/qx77a+OZ3/kx2Uhad5ImIBzIS0KA3gprZtaH78geOVtMXbGq1WQUvTSEyezm1f7nom81vXfxh2ZkH1x2wHsyLmRSaDaBmtfV3X/H7Q4v8p70Tue2vFLSK5uXf+EghMC+DASSoWaCfHe8d+eBx95hmzdnmcQV7nMKT2UuJb7nyjSMXnX+lrEwMkfb3FaRXy0Q9G70B3GOX3j3lZ48e32qTCl5I4cnshSSP3LJ85E/Ov1L4Ex5MITAvz0TFPjUD0jsfXTr8kdOubbVJBS+kEJm9DD20oXP0Exf8XKg8B6kYIm0HGvBAHUQ5uenmU+v/9ql/brVJBc9TDJf2Mkbeu+Se5MHHlstpFAKzo0jyGsQJzfZ/u/ydwanvuG57DjP1MceG9aqtj3baOCzrvpULbX2sU29YfTCAmj7vGdnePSwPWrRKBJW6qHTUhF9qyrYiRmd7KERmL6L2lY99Nfz+d/5M9lL+g5KWBduHAjsCoqd9U/dPHj/8xStOenBDp+l/dnb2xH3Lk3uuf5PuW7lQP9ffS7M506LBGqy2iBffewGoPHtToKBS2iSn9/Y7cxc/7R3zxl87hxz9oJwxf42aOmt0j13rPkIhMnsJyf03njDyoTNvFC5lUaWYh9lJzDB4xx19e/s3bjzT1kY746t+8JHkvl+dla1+6hCzqdEDgJooQyqZEJEX/XxBgzyf2T5Zn8eA3arSn5xeHlSLD/+9v/zMG70T3/JL94gimRMKkdkrMPVRb+Tti5/K1vbPk9MoPJidRZCX90xATe/FjDbQaxqIysRWLhMlSCd3XpgsmvUCXsqTeTEmjz5G5+cjy7PGbQxiCk134SFPeqeed1Xwlgv/y5m/ZM0uvMJ9ikJk9gJG/5+3/Cz62bXvUL2ARyEyuwIBpHlSJU5eIVBMeigv3o3h1d5v8aKfE96O1eT1cOogBMjuYFgtWLSq/JG//9/e8Wf/SpaqB5SfWohMi0kfv3PZyHtOuANBWXRQDJN2B1v38t0t4Fufy5DvzhDnXpWQoObNWlX+sy9/rvSWC6/YzZbsNRQi02KG37nwkfTRVUvlVP5w/6KC/QtDnkXepKnmztpQ+fg/faF07h//tNVm7W6KOJkWEl178bvTR1YtFF0UAnMgIIEKyF7KZuNzC8c+/cc/GnrzokeS+288odWm7U4KT6ZFmMaYM/TGGRvNSLNH9rD/lM0s2D4UYMA8B1bQ9M94/e0dX/7pO2X3jP1uK5jCk2kRzf/+6md1X7NH7s+lMwtenollcHkQyDbK0bW3vXHozYtWxrde/uZWm7arKTyZFmDCcTl09vTNZqDRI6dSRPYe6EggAz0A0qdZev9FP2z7/MWfarVZu4rCk2kB8XWXvl/3NXpkkV1dAHkfUKCmAx7l5n9c/OGhC4+8S29e39Nq03YFhSfTAobetuiR7ImVS+UMiip3BS9EgE3z1Ahn9tT1bV+/4nxv6esfbLVZO0PhyexhkoduPyp7euVC2UMxTCr4QywIF2QPZM8NzBn98Ok3x3dc9YZWm7UzFCKzh4mu/P5H0ZSLyN6Cl8UCEuRUsHHaPvYn510VXXvxu1tt1qulEJk9iB7aXI1vueLtsigGXrAtJkIaZDegKI997KKLw8u/8ZFWm/VqKERmD5I+cMupZmi8t/BiCrYbA2IKiA7KY5/89DfCX3znA602aUcpJn73ICMfPuZ36UP3nywqrbakYJ9iovyE2QwYmp0/vOo8/8TzftNqs7aXwpPZQ+jhzdVs9ZOHFLJesMNM1LCRvYBDufbZd/w8feqBQ1pt1vZSiMweIn30tpNto9H7krVLCgq2xURxLNkFdjxtr332vKv08Kb2bR63F1CIzB4i+sV3PmYbFuG22pKCfRYLCBCdoJ/pWzz6F2+6vtUmbQ+FyOwh9DPPzENT3PGCnWNSaCqQ3f3QsvF/eO/3W23Stii6/B4g27hmuhndNB2/1ZYU7BdYwAMRUG7812XvTR6+ZXmrTXolCpHZA2QP3nyqGWj2CJ9iPa9glyE6QaSUa3/+titbbcsrUYjMHiB75unFZhREsVNzwa5iMlhvJqQrRztrn/+jH7XapJejeK/uQvTw5qoZ3DDTDG+aTpp4um/NAhvW2qOrL74oe2b9IbJKcccLdi0O2BrYOs3uK+440V2y923DUnT5V4lp1hy9+tGl8Z3XvTl9+I4T7Uh/r22MdpqxoQU2SsFYbI084a1rYiuOIpWgYHegwGwCd+nh93f/7PFjW23OiylEZgfQw5urye1Xnxte/f2P2r5nFpjx4Tk20pCQ38mt9/KB5/fzKQalBbsTQb4rwhDNtm/814Wls9+/V+2EUIjMdpA8ettR4Y+/+pn49l+eQy1rxyPffVCRbxT2YhEp8pIK9jQS7Cio2TNXTbluw6JWm7M1xTv2FQivvfjdw+8+4p6R819/W3T5L95LmrWLDp7fidDj+V0Gtv5TULCnsUAFstUbZjav3LuSKAtP5iWI77jqDfV//cuvpw+vWYChLHtABDw//ClKZhbsjUiwQyBn9qzvvvqZ+bLUtlf01MKT2Yqsb9XMkQ8dfdvoR8+7Kl2xZonspqwOyj0XJM9vul5QsDdiQVRBPzs4J7r6B3tN7ZlCZCZoXvavHx8+/8hHktseOEkElNW0CXER5MJSDIMK9nYs4Oc/mz/5v59otTmTHPDDJT24obP2mfOvTO65Z7koUd4iLIWoFOyj2AiwNDu+8+uz/OVn3d5qew7oGNT49qveMHTu4f9pBkdmqh7yOZdi8rZgH0f4YIYoh5f+y+eAlovMATtcalz65T8f/ZPzrrKjIzPVNPI7UYhLwf6ABFGC7MG7j9Mb1/buBeYceIx//WNfrX/x818Sbr5yVIhLwX6HB7q/0ZM8cttJrTblgJuTGf3EqdfG195yquiZmH8p9j4q2B+xYGrgvu7YW7t/cN8prTTlgPJkRj560q/Dy285VUyZEJhiObpgf0WCEJA9dP8xrd7u9oARmfGvfPwr8W9uP0nN2sqDKYZJBfszLtjQltMn721pUasDQmTCn37jI9F/fvvjqoeyqFJ4MAUHBMIDoSH6+Xf/tJV27JdL2HpoY7vZvH6O8EtR8vCtJ9e/9pdfpUSZgEJgCg4MLLknk0G2cuXiVpqyz078mrAu7dhQd/r0A8ek9954Znr/A0fpobFOdLNM2ijbcGy2xSIyg/Ch2LWx4IBDghkE2R4MT7l+3VzZNa3eCjP2KU9GD29qz1Y9sjT8n699Zujs+UeZjQNzJmtpoMHKiRKXLnmhZfLAJHwKD6bgwMPm1QJMPepOH7vzBOCGVpixT4hM/JvL3hZe/q1PDJ837yizMeq2EoQE/HzciTchJluXXZikSGosOIARAZgBiO+44SwKkXkheqCvu/mf/+dv4puvPnf00++dTUpZlPIK7dIjt3xrUSlKWxYUvBBLvrSTgl6zekGrzNjrREb3P9vd+N7f/tPQeYe9jZHadJw8fV28uAJd4Z0UFGwXogR2uG92q86/14iMqQ0H0eXf+uTwBYd8zvQ3eghAdsIL9o4uJm4LCnYYUQIz1t9r6qOerHYme/r8e4XIRL+74uzh9yz7ulm9/hACkN3klhWiUlCwc0zsNmnro3PM2GAPsGFPm9BSkTH1EW/ss+/82dhH3/4GXMqym+c9l0JgCgp2DRJskmEbY+0cSCKTPnHPkuE3L75Wrx+YI6bk8y5FBbqCgt2AA3YcbH28vRWnb0laQeM//uGzw+e97h69cWCOPEgg2kSRS1RQsDuwE8vYo6D7WjP5u8c9mdFPnXHN+Bf/7nTZQVlMAYwtlp8LCvYELYrv32OejBkfDkbefdh90XU3nS6nTghM4b0UFOx+JuNllGrJ63yPeDJmfDgY/cCx92WPrV6ippKH/RfFogoK9ihCypZEl+12kTG1wfLwe466Tz+19jDZS1FLt6CgFWgQ5fZaK069W4dLpj7iDb/rtQ9lT6w9TBbFugsKWoMFWYb0nuve0orT79apoOH3HPpActcTR6lZ5PEvRSpAQUHLsIlTK537vsva/vY/P7Ynz7vbRGb002dcE1130+lqKmUcdlpgxL5b+qagoCXYrYcNCmwd7BhN94iFqzp/eMeJe6q+zG4ZLjV/8q8fj2+86XTZRRmX/c6DscWYr2BfQ+e1ZcQUysn9q5YOvvnQJ7LVjyzcE6fe5e5BsuKOZSMXnngHlrLsYJcJzM54MpOisKu8oa1FpvCwCvZWXvJlqAAN+lmQVW+085Jr3+Idfeadu9OOXfqEmPqIN3Te4pWmb2CO7GWXTvK+3MP84hs5+b2XusEv9dneJF4FBbuSl/W4J8YvZiNQdWqd37nmrf5xb7p1d9mxS4dL4//8se/olQNzRPeubPWlsRP/be+/b+uzV8PWolUMoQr2GSZyBOUMEGnWPvbJt10V3/Pr3bbT5C57BScP/va44beffpPsoiza2OXzMJMPtBACay0G+4fGW7Z5RRaBMJbEgCMFSkoyrbEWpCPRjiQVAuunVFIHN3PR1pDoGJmBIwTCqzKSjeNpaFeKhtL4dqtLtrmdO4MVryxadhualmqQEpTIf8oJc4TJjw1TkAocBY6ViCz/0DpgHAgNKJMHUqmJcwkh0AKQgqY1SMARIJH528oAxmKtQGzD/lazrZfCNn99dmd/v9v4gtmWfds+/3a9+CTYGoBT6/j+tW/xjz3r9m0ftGPsMpEZPK33mWxd/zw1h92Si/RKw6DJb2xzfGZBZFC2ZRrtLqrRQJKRVTwyIxGpizd1Ov6COcjTPowrNHp8kOaqFdRXPoTtX4dqjuFkBjeDTEDgSWrGUM1AIzBq1wzHdlZktM0fFEkuMpNWiAklNI7EGIPRz7clyAVFWQgBJcGZ+CMsWCvItMVaSNyJ9gVIO/k52IlIbqX27iFkITJbocAOg3Bodl2zcpEze9EuLQexSyJ+x7/9hf+38X/+qVfNY7euJL3yTXvpzwR559cScH2slAzHCSIEFWfIALzuTqrzluLOPwG79A2kr1mGLrmocoBroaNWo/zcKpJnVyCeegBn9ZOMbHoSajFZlBIldbTWSGWo+IJYP//2t7nvtKtvxTaRE9cuxISITNgz2Xfd2CBQyC0KJNFC5kIJtJuEDEGGJNQSIQSO1fgSHGOok+bXNXnbLfmJxLYFcE9gd9KIbR2+rWd8m+ffSU93l6JBdIHppzz6/uX3mUZtrqy07zJXYaevVA881zl8zvxnbJh0im72moxqaQVqotM3HEEqXAKt8DBI12Bliu6ZTbD4BCpHnwmHLieeNh3KFXzHQ2uJEgaMIdaQ+j4AfjSOq3xMfZjm4/cSX/tt6usexBkfJhjVVAw0jAdOulMezc56Mi/uw5OexuSx7Z5DqDPCCc/Dd8CVDqm1xMYipMVai9h6CLrVMNA3zw9fAYx44YO1sw/5zrK7z78tT2Kb55fb6A970pPZck4wm8A787jfdn3v7jN27OCXZ6dFpvalP/16+KPv/YWcRutTBgQIpRBKoiPQ2pAJnW8+rkE5Hs7sxci5i3CPPBvn6KWIxYdjqRKMWYQn0SVoElNCIQmxJsVKB0UJYdz8Zb1V3WHTHCAZ2kjjkYeIrvwh5SfvQhpL5uRP76tdgdqWO72tTqyE3PIda+0ftKczgRUWIwGVz904BpQGaSB1wOYau6W/C5FvRaMkCP18g0IIjDAIIbZ0/kJk9kGREWAjsCM027/8jU+X3vHpH+xYAy/b7Ksn27i2d+SCQ5+wUdi92/eYfolJ3clbKJh4UxuwKJAK62lsrBFSoqbOQM55DXLxMXhLT8BfuATZMRtK/pZmrQahDUiDcSzWuJg0QVuD9hSudPEyA6TgePlRW9ukNWNf+RThb74PUYa70xO/2/h8G51Y8sKHfbK9SSFoOgZPQwkFVpAoSYLBaoOyBiVAIDETQ6l8xKW3tCeSF7YvxYQIbfnT2uGA2eZD+srHb1MjtiES2zz/tuasWiEykHfrQcBV9e7rfn+oM/s1fTveyAvZqTmZ8Ef/+EUzHHbLHva4F6PJb7Qif6DS1JBkAus6COlhSJAzZtN+2PG0H/MWOOx40p5pmLJAegIyF3heI6I0QSgPKSQmhUCBcj1ckT+gApO/wq2fi6nkhaInJbLs4wmXqlNmXI/v3AXabUUXvHKtDDExnJnUfWuZmH/JVaCUGTKgbgyudfETRUkYjDRkEoz2QVqkSNFyYgxsQBgHYQSy5OYeks4Q1oKZtKfV7uz2sq37u69cx26gB/RaXa39xduvBI7d2eZetcjoscHy8Pnz34XHlijC3cqLhNsBhLEoKzCZIUMgutuozJhFuacH59T3o5YcAfMXEZsKaIHnOmigmcZ4rkVt1WxJpKTJCEn/JtwNg+hNm5GHHgaHHIYWHkIL1NYHvIRr5SQxYzokEiH+XhCgZ+1W8Tvi+TkUKSWVw98Ni2dh5vWSjo0Q3/8IyYoHsY3NWB9KgHvQa3APX46cuwgjIFv3NPFj95Cue5pSpYzVBqs1JkvBZGDsxLQxGLOf5ZIcKNh8jzNnGsR3Pn5Y+Kv/envp7PdfsTNNvmqRSa6/5AOmf7xXVmhJbpIW+RDHFZZwVg+V+WcSL5pO56nvRJQPo94bUA3yYY0nLanUmNjBccAxlthG2LEGYqAfu/FZ4g1Pka1/jGz9UzQHN2I2riX4+x9RPWRZLkZ/4N5u9XejsY2IzJUo5eGGCWYrf1tsNVSZxE8toYDIg5LycK1F1VL6BfT6DnUnw5Q8vI7puB2zyapTyVwXL6xRGR1jZOj3ZGkTVdN4+ARA3YsphRCWPRpxgvUEUkBJQuhYejQkbTNx3vNFouNPREyZR8UfwvVn4c26kfEnz8VTgqarMCefTnjqx0mPfi1dbgXpBZhNfVS/8Tes2biG6nmfYHzBXLqf2cD4pd/Dk5sJTYrXgMjPV/Oszd8/yk7M+ZAPawHGXQgMeCYf5iaAUeBKiesowiR93lk0gM6HZK4ENRHHA7zI4XjeOxnXls5S/i+hgKp1gCrj3b1M653NuB+QBR7tYYONA0/jPreJijWYJEUHgHCpOSl+AzqNT8mTDCgQscBNIhIfSr5H5krk1FnQMQdEGc+xNJJhZF8fjNdxx4exHjQUJLabrqSOM28BtXAT2gT4JPiOQcs2Ep2hTEJFttF0R9BpRlZrUEolQhpCXDzbgUoHMd6reGi2lwyogGyn3Pjyp75p6qO/3Jn9ml61yDR//r0/JWOPbWb/knEynk8Spag5R9Fx0d+SzOvBlDvQ1lLZ2igLXjOChsSOr2Fs8wbU079Fbu6H9Suxz60lrg2RZjFaSCwSlzz+4+UwNkHiYcy25/C2mGHtFqFJXcATVK2HqFsSq5FtimoKLDgYd9kp+IuX4B52LLo8E2U8ppR8kE2S0UHann0GuXIFY7+7lnj4GbJN/SAFddfiJxqvDZqujxyJSEuCLLGMtc/Ee8/7aH/j6cTtU7HrHicZfQJLFbF+BTqOiTKLs/Rkej70v0inH4qrh0jX3EtqNLZRJ5XjeIsPJnjXhxDtvaj6c8hVd5PecT1B6tHs9PDG64jSxO/NiolhlsgD9ZAoBJIMIcDI/DcrLZBZNAZSg1MSKBQSidWgpcZYS6LIFcu8lOs8OY6FauBQ1xlBDFQ78E45B3v4cjqXHk2zYyZCN+ihA5uF9Db6SB+5C++R+0jv/R2hHUWHKd0laHpg4pQhC864wfh5BKOqdCOXnc2Uo06ApYeS9swlkS4VJ0NlKe7gJsIb/ofGzy+mpA1lGxGYYZrdAe0Xfpzq1LlISrgyxZMCSzWf/yNEGJey1LjJOCNX/TvxrTcgAe2m2KyGdbevv+0UBuRUyJ4bmdn49//198AXXm1Tr0pkkgdvOm70T9+wWJTZo0PXFywJa1AuBBIod2PnH0ZcgnIc4TlNSLshyL+rN62HGy6FDWtprHmQ8Ll16LCBzDKUTvOAMkfgK5U/AloQit0z/psUmkxCoC02jekPoK0Grj8L9/iTcS54J+nCEym1TcUaQRY18UWENQkJCjNzAd6MI1GvfxvB607C3nYVpRt/ja5toJbU8BWkdXDaNI6FNIOKUZRe/0eU/+iLWBXg33UNzf/+Bo21j5MIlXtTdYuaPg3xxg+i5y/H3bwZfvEtGjddQ1gfR5U6UOEQXXMOJhqOMRUPhIcTpYxbTRdldGzRDrgxSAeQAqtAS4MBhNJYpfBDQIEWFiEFMsurstqJiOI4tFiV4TgKIW0ejawh0WAzCF5W2HOhEWmGHzgE0tJ8zWvxL/o76u0H4TFK1Bygw5bAdRkol/BmzaZy6PG4Rz+J03YxY9f/gJJNSWJDCRjDEHgOvjU0Y016yCG0vfGdqJMuxMxbgLQNaGR4wyMgGshyGT3ntTizHiZUPqI5jrSWDh8GXQf/2HNxp86FDBIzSuxIXNGOq8DFgBWYJshkHPemX+HHAlO1pBKsSQjllq69+7CAA7IC8S9/+GG9ed3X1bS5g6+mqVclMvF1l3zQ1mxZTqFl82NWQs3GZAra3IxMNfDxUSisqGACiAkprVtP7eufJnnotzgmxVgoK/IOriC1ikQrTGIRMsMRWS46KF42VCXLXrh97kvwSpP/1lq0D2ENpAsyBTt7OuK899P+pg8Tz16MZ0HVRuGJB0meuJNocD0kGaZrGv7cBTjzjydZNJeOQ05DzzqUaOpCsku/jZc2CBONNOBFKVkZZGRRAvyzLkCqAGsMG371Y/T9N9HmQuwpxkRA0ObTNm8R7sKTMCYie+Y2mr/7BdGzz6BwUSMjOCqi+WSDyg0/Jp09h2zjerj/fmwGloy2hsEtSerWoAwoYfPw42zixaBAKUNZKhILCQZjLY7NV2yskuAqVKgxFsLMYCZcSgfyYEAE2SuuvhhECspkpIDp9sFzCB69H/HIlaTr7mOk1s24n9K5ZAkdS04gOfp0anNei3v+B6j2PUX84E1oARUDSZDb3dQgph9M+e0fxpz0Dsqd07GrHmL4zutgzSrEQD94Gd7sXsTMpbD5OfyKh840cQalwCFVAagyVkGyZgXhhsdAJCDbkEZitcamGlMyjDfGqfetoM130I7CJBG+KGOdBPQeKJKdgWgDs7k2vfGf//w54K9fTTOvSmTSFXecgMtuKBSx/UjAiV2Eo3Arbbieh0aCJwkFlA0E0oJKYKwPkhQcyFJBmrg4foIEfGmoTKx/Z+TD0RRwtwq1/wN2wXUnoYcfSDIno+z4dL33ItRb/wzKM7Gb11N56DKeu/7X6IfupSwiMk9gDQTWI9KCgc7ZdJz5Jsx5HyaYspTKWz9JzdE0Lvka/sB6UgO+hdQTdCqPplCYGTNy802G3NSPwaWMg20IwiTC9TSmfQqyvQeVeCR9fdhN65DCgJNitCBT0BxNkf/zFaxfJY41pjFKpQTjboIJHLKmoeRNzGMJhZUCi8AqgZEKIV1E2gRpEUKST7hAhiU1mjQ1ePigLQ4WMCgEyppc+K0F75Xfbl4ZhG1DmRDV9xSj//IXpE+sxMvWEWcRflalQ1RJeg0AACAASURBVDXRK25kuOdaOj/0V4jX/xHp4sV4Z51JuOY+2sOEsTSkgiBJMwi6KJ3zXqpvuJBmqYvsV5dQ/8UlRKsfoyrzKYt6nJI8bAiCX5LINryhQURm8BWQeHRUenBdBXqA7JZLiX75QxgZwBpF0yjwPBzHJVNgpYSBIaTjECiJiTy09YhUk+qefPg8iH/9k3fr/me/pHoPGt7Rw3dYZNKVDy0eef9RC0VAS0XGZtCNyjtvCmniAAJroewDEiRl0jTAq9s80EyC45aIRILQuTcUSYuYiGy1Foz0MThAhLB53s+Wc5I749twYoDnEzlfYPNWf+1MNaFN8KslvDPOxZz2AbzKbGxzmOSKb1O/4WfYWj8uETGGuAaBcJEu6CzErT2NvuxpaskIwTmfJV14BOrYc+l+4mmav/0ZNhzAugo5qjFehqgE2M3PkHXMxmx4nKkDGxjE0miGhA4E1dyuqFyizVMkepx4uB9H+kTKIY4jHB+kB0FXiqvBjsTEGaiqIEglMtE4JQctBJGUpGYiWcxMhAFY0CYfvjWTPKhRSnAdUEptiRrW1pBUEkRmUVogtcAKQ4ZBi3wh07OSV5oMTIzAKkvWzFBr1mKf2ICfaNI2g2cCbDaOdPM+0PHsGsJrLsM/9CjK845ktGMhQe805Op1WKCmLZUQvFNOofzmd6HbpsL9tzB2/Q+wj9yF40hiaSYSSHxKSYLUCVZGiJIl0gpHKiwWp3sKTQVWtBON1WF4hAAo+YY41cTCIk1MGqcErsSWYEBmtOkMaQSp0AQu+Uz5nsCSbw63eXh2cusVbwd2OEBvh0s9ZI/cdrIds3lJzRaKjHEgUTFNHdJIQmLH4HjgeC/seM7suUS+ZiiQDAuwUuC5GkflqxS+At8RlITIXXE3RQbRy16aZftz414pYEqh8we7ezbO8nOR0xbTbMbU7vsF8upLiTf1EUQZpQjaEugqO1g/pZGGuFi0hdiF9PJLya77DsnASvyZ86m87yOU2+dTLgkcHKyFAW0QlAnIRUpIhxF3hLBioCwJ/DxNwEYSg0KrGFuuIKxCakE5SZgKtPv5sEEoj0YTUuVgfIWbWWLH4EqXNNVoZRFCYa3AZHlSpify1IVATOyIM6WKrfhIR5FnbxisAEdISkiq44agYbGRRRtFho9QJTypKG+5rS/RfUX+J0ss0svwApBCYn2HtBwQhhY/jGm3EGtoWkWIJtncRzQ0AJGgq+MgjHZp2pj2ioeRLqJtCuqEM7HTD0ZvfArv2v8geeJhYgOJD6kCIS3SiUl8iELQUUSSaFILUifIDDy/isk0ldDSFsYoowkljFlBI4MoSYniFCKQDZ92AaUUnBgcBzQhe3z3pInQjcaPv/qZV3P4Dnsy0U2XvUc4eXj5nkYgtkz+SgMaF8dRVJSPliZfyZiITp3sh8JCRQsy6WPSEGHy3Jwgy5P/Ypt3cGksSoMwBlfD9vkr22HzS3g0ALWKwBVl9OtOoeu4M9BAuvoGgh/9fwyHfSQ6L8PgO2VUZkjjiMwDUYLYQFtcRjsOo0mNoVuvQR15DEnXfLpmLCJ844non96LiCzMnYqqlKgyjUQIsizBq7bjTJmHkwQgqhgVEsYWpUtUOzqJ7RhB5uK2dTI6dQZGS0Q6SjONkPUxyuOG8YWzcYSPtg3Mhk2MpJYe36UpNaU4o0JKKiAN2nC6enB6puF09ZD6JQyKrsHHYLQOQyNktTHS1GK1RghwrCLCQ0zpxp0xC7d3Bm6pBM062VA/2egwbFo3cSdf2qNp8xTj9QgvcqEkEU6TCiB8iJXC4oKJmWJcNqiYasWjW7ngaur+ODISRA4kaUJHFqCWvYbyIctJhc/Qo7/Feeh6HCx+Z4VGGpLpiYnryJK5EHTk0yY6gy4/oBI3GMwsVvm0tQnCZp1YNgldS2QgSCW+EZR8hZQJMvBojgvKE0N/k4GpeCiRUUHS3JOToSKPnTErn52TrrhjmXvEiQ/vyOE7JDJ6pL86fMGCJXn9AFoaFGklGJOgAW0MJeuiMUg0wqqtVMbQBDydklmBdiNkCtrNo3jdyf6pxPO6YsEIg6f/8PY4pGihtgSdvRxm65vzUm/exJAFKR3HvpHMn4pT30D2uxtxBtbixwrp5RN7kWqCyqOaqxrURGOhbuLEQDvoDRvovf6nZMefT2i76Fx2PgO/vAQh61Te8VeoOcfgei7MXYgJAhzbAR/8Ku2qgS8d/Dgik4rE78Att+MGc4nVKM2T30zlkONz8VYJ4qYf0/jlf1NrV/if/AK6NI/Kho2Mf+svsGFGZCM6Qx/hBdQM1KZWmX/C2WSnv4OoMpvKtKl4VuHoKqPxc3gjTxDdfAuNX3yLkgTPU6hEscH36Dh0Du5JHyVYfDSqdz7C68ahjghH4YkVDN1zDfrWn5A1YiqijUg2sY5GSfBTRWI1ykJaTnFEgBdBXYKQkkqUMtgJ7eOdaMfQLSKsUwW/l8wkBJs2ErKRcQPTs4DIRqgjT4c582iEGd33Pkx9uB+pQTuKABedGhIf/A6fKTFsyupEmUPJZEjbZMwv4zWauFOm4NJDQ68kGVtLl4Z6WkbplErgMJ6koCF1EpSXUCcf+rnSIkVMpgJ0KkGF2/2s7DSTQ6bQlhs/+OI/Am/dkcN3SGRsY6zd9td7t4TK7sWR15bcizED63eqHWMMQhqsdXY+O1+YLekCPmCnTEXNmoPjgd1cJ1r5OGkYIeRkdO4fNjG5BG58kJ7C0xrPWpp963E29CHmdOHM6KXUNZtsYDNy6kz08ceSRilW9eQz275L9bXHYwjJqJAkMcoxlK1BZyE1T+LrbtoO6sbpHEcLh9RPsStuo6RLdCoJBy+D3iXQvgpbCZDRGMoakiwklZK2151A9zkfIDvkdNyeuXg6QSVjRLqBzRQd1bnE0+bQORrQ+MklWBlho4SxwGHGyafBu/4Kph+BxEEmDVI5TKYyVLWHbPq5tB19Csnc+aQ/+TY67Mek4Cf5UDazmoYC5ee3vJlE+aqW6yFUG3UnpNxsEolR4iZ09HbBspMID5qJGttMeN/NqPFxZrgQCwtOCfeQhWRuAINjZCvvR0pIlMBKlywo4XQ5lKOEZjjGmiwfiotAYLWgEVpQIcKHyDe4TkwpgpJpR6aCJjGJr/Fci69cVKrJMsjaBDQVHZ6H76ekaUqMJhF7akJmK1TeH7PHH1+yo4fukMhkTz94lDW5qhW8SiaExrUeyYzZmGkHARnZUD961QqyNMYXzssG+OUpSRZXgVAuItRIx9Ic7KNj/TMw9wiY0kMyaybepjV4N19J+vTjhLi0v/VCshlziYY2YG64EtmsIShjTIgQGcopo2YtwD3+TVgPwgfuxH3oLkSUEnkKveIubFyjHgRUVRn8KllbB5lIUTLFA0S7R7Z4GdU//QfM4tOI4xRnxS1Ej99CacWD9Nc24bRNZcaUhYTLXocVIwRtCjUuSUKBe/a7ke/6GOXZy6CxgfCBm2nccQNmdAjXLeEsOgzn7HdiFhyNOOdD2JFx7A0/wo4OY8mH0EpKyqUEoyXGClwvQ2iQiUbZCE80ScogtEdlxkLs0WdRveBThJFA3nEzjQduwqQJ7RoiDB1uD6X5h4Hnw/BKasNP4VZ68I4+jfLspcj5c9DtbXibRgnWrmDT47/DW7cW1RzFE6CVi5EZju+iKl15YKn0iQ5fjvXLlDyHUjyCGR5FD46QDa1D6pRy4lIHsixCaENsQSqBQSJasc9zALY22JOuemixu/C1T2/vYTskMskdV583mdtQsBMIg8kkumc22qugjUUP9uE3R0gUWG236TX5mSAhzVdsSgqbjaMGNwKaFI+g91DGw5vIbvoFPi5ZtQd74imImfNwRjTj134XNq6HFITUpBlYr0Jwxvtwj3kjge+R3f07atd+DyceJzUu0hFklTxq108i3CQkSpqkZFilSEKDN2cB6swLYdZJyEaEf/flxP/9dcJ1T+H6kkpWJ2paRtwbiB+4BTPFwdhxfKHJFiym85wPks49BuIhhq/8JuGNP8Pf2Ic3GdO04mbUxpV0X/RFknnLGD7jPNQNV5C5w1RVgND5MrkXx+hYkygX5YAKPOzspchZB1OSIUl1Cm1dM3EWHkm2ZCkNJ6Zy208Y/ul3aQ6sZYooUYtC0jaHqKOHUvtsHDTuYB969sGUjnsv5be+jyiYTupqHM8njkGk40xfeSfR9Zeh77oB07cJVTakqcURJSqlXhKTEnTOwb3g05hUE2iFMk3QTcJnn2bs0VuJ7roB+/gTxCpB+OBnoH2BjS2uKWHlHtky6QWIEpgRXY2vu+SD7EAE8I7NyaxbuXDLGu5ePFTaF4jQOB0z8ZAY65IO94GyKANEGum/UGXMi254ZiDF4Dj5p46FbGwIlwwtFUG5g4bjkqUJtmwx0iLwUdYjCcBKS5Jq0hhERaIcg0eCkhFULMgy5VKJUAgyAZYUyH/1HW6MY3xQGutEOASkVqPdFHH4cqonnM941UHefCXNy/6V5upH8GyJ4UZCu7ZoT+XZ8BvXUhlSDEQZvnIpn3IW2eKjUJ6gfsm3sddcRnlkM7GERgzVssWN60R33Ei06GSCOcuYftiRmGVHUnu4D0YibAq2AkkCgVGIkkNiM5yuWfjnXIg8+90obZla7iRJDapcIlr9COl1l2FuvxI1sJrAgCs1mQOB1DjdXWi6kFGMkB6lcz5K6aR3EvcPw5r7kLU+hHIozT0SjliGXXIGwbyDMdNmMfjzHyCHBvJVSc/FI0MNrcLxppAag5t6KCtIghJx0E3btMWUjjoDTnkT4SXfJrnzapI4yVdDM0tTpyitWvOinwhpSh6684QdOWzHRKavvxdNS7ecnVxh2skSq7sfK9lSUPclMGhKbjuu62IExEmTVORhJdsz9xNJhZWWMpAmNv/lZylKWqTvkug6jrKU3XyJFp2S2QylI5J4hKwJKgMjHKz1cAgpSR9PG+JGE+27xF6GSQzlWDDuWGQCKoaow0LigOORKoOMJU6sYVonwdEn4/XOwh8e57nbrsdfs4K2LI/87XfTvMNJi6wpEhHhWJfA8cg62vGOPRnptxNvfgZx9xW4g5vJFCRUqZLQrjU1A45N8R74Lea8P0K7XTQPeS32nhtRbob1BAkGPInJ8rgajAsp2NoYDGxGZoKm00e5ay7DUQN31jycM96KndVN47dXM23F7+lvjuJ54IQJ5XKArwJSo3HnL8ItLSR94EZGLv0uqu9hmjpCJj49Cw6H096FevMHUVMWIl7/DvQzT6LvuBbfapK4Sf8d1+Ou/D0MDWEdSQWHJFCkM6fizzycdOFywsOX4r/mNJJ3xbQPD9F49HaEY2k3GbIEKo4wrYof8cEMrJtjmjVHlrevROd2i4xpjDmDZ87t3D17Tu4Yk0Kzt+vMKwmNlAYZhSCdfKHOreRXZcB6+SqStXZiDmarJsmD+rRwcUhJJoqBGwFOWxvGGFxtyUJLM7UIYxHaUiq7jCuBrx2cMEDJMsqVONqQ2Zg0snnWcabQtkxFS5IkI0kNbbIEMkQ5AcoE1IykJCUWD6ktJrMYG+NVD4J5x5KZGLV5NeGjd1MGtF9GJyE9VmGMR0O5uHGIEJbxRoyquJh5s/HmLsRJR8jWrWakNkzn1E7aTUBal/htCaKcETUzHGOo+ZIgqeG3TSdecASZrJDIBtZ6pCbBwxCRx6qkmSTNnsO95hLcO2/AkRm1KkRMo3LwUvzlJ8Gio4nnLsOdvpTxS7+N+/jNqLhBAiQliSonIHycrqlw77XEP/pnutY9Rr09nz4o65TwifsI63WCgypMOfYimLeUypGvZ/i+32Ab4/g2JHriXqpPPkkzHCNWkqBUIjEx4zrBU1PxjzqD8gf+GL3oFKpHngGnr6H57GqaA+uxTp4PlqndtPXrdiA8MIMDC3T/s7OBtdtzzHaLjE2igKQ+kz2RAbo/8TJCo6TE1utk2uCQ4Va6cJQkkgrjpZBMBvO9dNSwZxTCpjQycJXCeAFOTzc21Yh6iqqPYGVK4oFOYGqcooxF+Yq0TeEpRapNnoblChwXIMNTCUGQL+cHSjFsITEakVhwQxInRLoSnBTPgA4zIg9k1aHSPh132uHUVUzp6Qdpa2ymgcEz4HrgZprQSfDSEN+T+MZl0EmwJqWrfQYOM8icgODwIznoy/cx0lhL5mdUVBc2a4BnKVHBJkMIr4egMjdPPZAxzYokGJaIRkYjsCgrKVUlOrTUtCbzNaWRVahNa6iXDG4DRMWl/sTVDFznMfXMj6Pe8VdER52A11tC/cso+rF7kcrBMRJrhpGyk5qpM3zl/6V78yZEQ2ETQ7fwaDgZUQlm1dYTXfE1RhYvp1o5gvaZBxO1dSHCOhVPMd7MGJIjTHUg1oYo1GSJRflQTgdI7v05Q2Ij0z8xF2YcQmPZcrruPow4HGbYETijdazKi6q1glxkNHr1Y0vY1SKDNXIymrKVTEbRxnIiqQ5Is2YejyAcJjcAysgQmYdOBI60qCzDyxQNa2l60L6bJ+flC7Ir//CmjShDsv5hZop83VXPPhK/fQq12maqGmqeoTSRx5BNNOWKvNi3VoK0EZEoTbsLZBrXDVAzFuMbh0jWiJ69BdcorM7oVIJQxXTNWQJS4k1bwDgjWAWuFGRZ7hXqiY2YkhhEFcLU0uk7ZHEznysygiATJH4bOnBBjOJXfcaEA82M/qkVZlmNkAFDzWcJRBMrYDxtMt1AlEG1ohg1miYGrKaj5FCPLbrigCNwbBkqlvEFMS7L8aOEwHNIHJcYqJISpRbPJGTCAyOwtkSgFbE1eL1luocjhozBr1mEY3Gree3aIAiQniZuKMZlytTUpZG5lBuaxnU/xp3aQcfbPgdzjmL8uJNIVt+FSlNGxgaZSS/akbhrx5i/dg1P62ECZXDbPcS4QETgVCSNJlQ2V/D7nkNPP4is5yDaZh1GuHmQjaGmo2xwtcNonGAAJ2gipY8RAdpPiJsprOgjfvA3mLPnI6csIu6cjY0isvEM1V3CzxTQ2L0d+OUQQAbZUw8dBfxyew7Zfk9mfLQTrfNI31YG4U3Eibg231hMSYkn8xyB5x/lfGuPzE1QlYTUsaSOIBN5FaUpbkCq49ZdBNBpFFH/SugbJJreQ0d7L43uI+gYHCILfcK4SaAcKspiRJ5NLO3E/mlakvop/kQeT+Ipqj3TcQ7qJCyVsOs3IepNRKqxcqs0iC1FkfPI6FdiWzVkk6hBOxUQHcTNEN+AhwMOVKzGcyrUmg5+GuN6uVDWHLDCoWQSoomi5VGSIQMPlSakboQlI3v0boJ7HqLuxIyYOhWrIHPRWYxShhIOYZCRmRgvVYhN69GjNSIkWaxR0tDjC1JdJjEJIknxUaRJjNaW2EBJQUYT2wThOzjxEPV7bqXt9Rehe2dh5h1FU1Vxwnoe/9LYjEOJVD/LiN1MeygQHgid4Lp+XlLCGELRwDQHKTWG8ZwOdJAwnKT4IqRcscSAdVyq1YQkyu+L9RK0sDQNSE/QnTRpDvz/7Z15sB3Vfec/Z+vue+/b9IQECIOE2BFiMRgj72wmYDuesZ1UnMSZpCaTqYxnksmkZrJVKpVMJXHKk0xSzmQmy8w4i8eemDheEmwP4DiYzRCzI2SQBAjty9vu1t1nmz/OfQRjB56EpCdMf6pevdIrdd/T997+9Tnn9/t9v89iurOo6SmGq8eoOprxAoL35FVFvVxlJALIwG1/6JKlHrLkIOP3PL0+1hFxLBW5lkiMEeF5vuJOiG+fOxa1SW+InmTgM7zIiSpArBkOSvRSlaaOEc4F8t4s85u/jlnzbvSqk8mveTfl0/eiyDgtC9hBydAmFwUVQA4DIjqkiTjAZAKBQtQdhm//XsY7qxnWlvbDtxPm+lA7Yhu8WCzRTrxkABEBRBh5Nolve54s9m7lIoIzDCtDoQ15IagXhnjXR1UdWLGSQVGQl32MBSrIhCJvFQxdZNiqkTHQioIF66FfUwdPO2jYtpf+zR+lqvcTIzivUAGc9ixI6GiJcpKZ4PABWu1xDANaRoINeKCnI1r1X7C6zxiEIU6nIr1JMUG3XGBCCg4GRytAUR4krJpA5NC5/BoGUmCEQM7uQwz2o6bOQncK5vQYWs1joiT0FMPckGUK3R9AAaIY0g8RLQxGDlGijwVql3q/jKio53KMkFjjyKTFWOgCPtNE1ydWC4wVhkFVPW+eFzzU0ZLpb5d+PW4IQEM8sPeUpR6y9P0jqdxyL5VeiBl18IYINn77nkfMSI99pyh9RZQ1LSGTOFO+TAvaFxB8JKNDef9naXcP4VoZ2Rs3UV74Bko/i7WWOkaGCioViFlAtcG2YbbtmZDQyiJi4Jg6+1Lyd3wQ4VfS7h3E3ftlZHdA5tN3IhBTMnDRuYD4TwiVf+v7KOO3qgPGGJ//yXWBj2Cjpd3KkIVOeirzB/A+Q55xIXL1ybQ64ISmyhXtjqdihnJiyGRsURGppUAIhZyp6AwdQYE/dz1l1kFW0A4SraeApCWjItR1QHYdY5HULDnoEp2nCIG2hFwags8JLnV9VxZcsNiQJD/XeCirHpWESoEuWgQLdA1SGKQQiLrEeMiVZjC/h9a+HUSfkbdPo5i4kEMZWKUgB697WDXAZuCloS7adMZPxXqLO7AVMZhFyoyMHBWgig6bR0TbIZRl6KCWoJUiOk+tLJ3JdaBb6PkeE4fmKCpHVTogLmrgLxtCQFiYWbLj/QmQK1oaL/yCxxjRLYM0GV6mepE6WkoCJQEbhsAMNpRQD+ngKOqAG5T0ezVVuQzVki9ihRaU/UDxwN/DN75GVc0hTj6Pzg/+NPVJp6faDi3IhcRbSVVnEAtaXjPWS1IB3QrqMy/Ave/9FCedj4iO8q7PU27ejPABJZNDQQyklOf2x6nrGrtzaxpE/NYZTiKwqN/yQh8lSDOYIEa/a4hZJC8Ctu7T846se4iw7THqAoaTa5na8BYCBcYqgsqZ60NRwWQXlI7kNuk1tccM/f07qbY+zKAa0DrzLMbPvwyZJyvdUs3TF55YgQ4ai6GcHMPqgiAl2ksEOQOn6QkH2mKUJGf04FUtTDAUQAnsCyPFMmCgI74eIvOCzsZNkOWpRGL/DrzXWKsoCcT77qSaOwTjJ9G66E2szSaZtA6RRbDg+imgFYwzdtJ5FKvOJFpH3LUTf2iGGGpyaggpoBTBY0rLxFCiqha2mESY1DMn163DnHklc4AZziD37ULh0YWgFQVyOb++o5V2mJ2ZDguHlrRoW3qQqcsi6Sce4eCOMq5y6YapI977ZKOKxCAxQjGkjWgV1CGSiYLgwGWg2pLWCRBayxAZN5Lu/j3s/PzH6Rx4Gt+exF96Laf8q18mP/9yfGc1sRS0fUTngXlVMYOj1NA3hnD2+cQf/ffI634QJg3l5r/Hfv5PUP0DeBWRSqUe5QARgVcCL1KNzkt/9Ekc6jspAya9l4h1gRBrtIkMbR9bRkR/luG9X6I1mCNOTtN65w9RXX41/ULhqgEOqNoT9DWE0KelNGJ8irmyj6hmCJvvpm1Kgp6ivPp76a67hLqCtnOMZ6CkQlqJLz3R9wjjU7hVpxFaObR0KjAUkTpA7YcMgYWxacrTzmNoMqQFXYMR43SxtDysyJKEazzzAsQ7bqAegN/5Tcqbf5tCVGjh0AJm7/wKxcFnCVMTuBv+GfKiNzFUkrJ2FCajrRSZhrj2DBa+5730zjqPdujDY/fAzBwIRZkVdNaspUWbfqE5qGGQK4Io8f15Qs8jVp5JdvW/oN54GVlb4LbdT2/7FgwSJQTeRnw4Ab7AQq5eajBY8p6MXLVmt9CkBrtlbo6MEUIVEaNGtByFQaYxeQfVkKI9iVzYR3fbvdjhAnNSohS0lquK8EWEQjEY9rE5tJ5+gMHNf0Lr/T9OseY88uvfjz79Aubu+grl17+IntmCqeYJQSBWrsKsPgOzYRPjV7yFuTe+jTG5kvDco8ze/D+Y2vUE1niGSAovkD4QXAQpCEYTtUSKxTThi3bxRXj+34szmBcHmsVNZKWBCuoqFf/lQ0twFe7B2xne/nHG3/0TuEs3sUL9NDOyQG25lzVuyKGDfUQBfuU5FBdfRdFu073ljwj9HtUdt2DecgPVxe9k5Y3fTy4MtvOniOcexvbnqWKJ7ghMZ4r2xjfTufRq4sJu5j77cXoLB2mL9ICpo6cok1hQft4VTF3zPrpbH0NtuZ9qyxZEt09nfAUFllq3GNv4dtrveh+D12/CIBAPPoT9xp2Y0AUJ2kO160nUvX+LOOls1IWXUt/4IepKYLbei6i6hEygTz0b/ZabsFe+C0eJv/tvGHz9i7jSkk9MoNadRfaWGxFbd6CevJvhwj4GocYZhdJtxMln0XrrBxA3/ChxqkP7yQc4dNtncIeeo61ScWGIYLSGUQX2snEYk43DCDKn7yRTxIFf1snMYp3IeGaIUuJ1pNBmlGax1L0udX8e+6WPM7n1boZP38Pk7l34iTauKqlLqCZatKtyGa8CshqqyRbTvSHMzVDf8mnq+f3UH/gp9AUbURuvZOW5G4jv/QHqA3uRhxYYjxBXrsCdPE0+vZaeb9EJe/GP3sP8Zz8Gd36JGdXHOlBFxMhADKkaGCkQRoGQyBduScVRrfh34MVKLSNr8dFhFkPOwClM3kJ5i2g5ioPPsPOv/5j1J52JvOx6uOQ6Vp96EXH3w4jdTzA9l2E7berTT8addRn6jgdZc+ut7PLbae/ZwoFP/SEnxxXU555D8a4fxLzhrZhtDxJ376DuzqDXrGG49jzM+NlU42PUt/wx8dAhlAAbMlT05C2PQVAPKhCK1qabEO/4YbLufsLWf6BY2IObVehVCr36NMqJi2ivPx0Gexg+cBvqsx/B7+tR6rT/EJ2mkw3o3/Kn2Ox1TL33/firb6A46wryZ57DHtzGnKjIzr+EzlmX0Xaa6v5bOfB//hfTcwfptw1lYBaBPwAAFsNJREFUd4H2qSvp3fC9TN+0BuYP0H56K8PeLmJbU4ytIj/5bDh9HS7P0DMzLPzlzVT33YFqwUINWZYTfEUrQH2CrCiWwtLrZIQMy7lWev7JOhpCL1oqYDLkVLMDzM6vUx6aJ3z5c/S3fRWe286OflIjM4WiXQZsJfFCo72h9Mn+BCnQRExMerJRJk+noU9eJzJKiJYgPBWRwnmU6BBk0vOQIoOoiFajJBRCE21BzF7aQXIoPXZ2yKAFuiUx/QPo2z9Pa2Yee807mb/iajpTqylWn45afU6SrxSjG39QUco+Yuv9lHffir3nNsJTj6L6fVSekRU5s6FLB0ErjONlj1K3sPv3kJ8LqhrDxgFGuLSEKMawVQ9BwMUWrXlBNz/IwFlqAsKBboOqDF5KdC7wtsSGAZ2FPgv9KabGD9IfAK0xVuzYzML//j3Ulvsorns32brXI1beBGffRJQDfDuinUGXO6ie+yoD28UImB9AdsffUYuaQ+/5MKvXrydffQpu5bX40tPSbZAKbWuq8km44wuoO2/H5+PocgHyEhEFcmjodSzeQXZgQPn1r2HedgN25Vpa42vQuca5A0g9gRFtitLjN2+Gb3yRcNfncE89zrx2jFvQOqNuQ1nVxO3PYb78caq4F97+I8R1a1g4Yy2d+h2sMjIpCu7bhf3GE7gv/DLzWx8nBMeKlmYhGPScYfy5HvUVa4irNPKsM2nTxnudHBm0h5m9dB+9n+yvfoXBk88gul3GjUKOGbq+xnoYxHrZs6OHw5KDjNCmFqrYH0Nv9bEc0FLpxIxa1PQIqD2bUTf/CWGhxDy3A2UdlZ6maAcyGyGUDClxhQNhcCJQZ4EsBjIMMgoigSoGhFWIqBkTFYIMJ0GHHCVBiUCt+mgCqu4Q80gtbPIGUhZlA0SHbTn0y2zO5a0MExzBCqRODYqirrEP3snw6W8ivvpF4hnnY8/ZiF19BrTbxFAS5nZRzuxi7JvbqPbupL/jSZjdQ+E9qgNVqBkMazoFKB8ZhiEij4j+PsovfYLuI/fTOrgLMe8RKLz0OGshJq1duf0Byk9/FD+Wkz9wH8ZVeAMg0z4NjlgG3Cc/RnnKWuzCPKLcQ1cmJb9YDbEe6mfvRC48jdvyCPq812PWX4ieXAkB8tISHrud2d1PE7Y8Tlb1yKIiyxXOD9jz1Vtpb32OcMHlcNFVhFPXYzs5wfWJM09T7d9B+dD9yL37Ubt2I3oD9Gh2pkREaIugTdsPEVvvpfupvYjHP0tr3aXkp1yAXHEq43WHYb2F7oGnYOtD5FseRj27Dd8/wDB4xqJGBRhaT3CCjhGYKjLc+jj7BrOMP/gw+WVvIFu3AcxJ1MMevf2b8d+8h+rBe2j3Z1gpkn79vEsNoG7rw8z9xUcpHrkNse6NiKIF4wUuVFRze+js34XY8hj+scfohX24uS5KQa3A25qhTXtlxmhiXP7kxVI5rHB44JpTt4Xn9qyXp3LcGyTFi4aqKkOpaowBkSvq9iRMryXb8Ebshg2MqzGKWEP3IAt7dlLvP4hemEPN7SfOHwRnITqCH+KrCmtDEs1XoCXoEsZ+48/w132IPAmVEBQIPCKk5hErampfotDIShD+4OdZ+Ov/zly0rHwZQ3UfIyZIhBB4HfEKZAhQgazB5mA6CjJNFT0+CnJdoILE1Z72oI+1ERdS70xWKFDggsfadA3GQj+CKgR5iKisTRkFRvQZlh2UHCQfazfSqclJglkxJ1KQ1QNkrFOQETppggdHpWAiKPptg1IKs9BnwcCUAl9J+lHjy5pMKjJtiLmkLCDqQBEgd4HeQk0egJbCE4n95BZBnlwl+wZaMu22WSnwWqOyHG0dorTIOI8nlTDEoJAiokRIrpMSei6jkBIZLC54vII8L9Ck65hd2aKoAtnQU9ma+VAR8IwhmYgaT46QkTJWlMLSUtCpU3d3KZOTpZ0A2R5jUo8R+wPmFxZQIhX69T1oI6kDOAQ5gTBIvez5ijYhCpQyKG2wEUpbkuHIfE3se+yoH00ZUEZiQ0ifq4Aiy4nh5YWr4rHYOBUQ50FMdVj5hWc7cvKkwcsdclhd2PqUkw7Wu/asT273RzzMo4LLHDpqrFBIJan2z5AfmMHv2oq+/yTmN15FfeEVmIuvJb9uLeMyQ9VDmJ+jvzCPOLSd0D1I3LcPfWCGfOYQfnYnbv4p7HAG1T4NVwYo5whZRkRTuojREqMUfRfIVKRj85F36gCnKto4lOFlg7DyEFuBICFWKSVcZQIxHtECQk+iaoWsPFntkjqoEQip0QFmiZgCjDSApPYB7xxCpkAZI8+LfGOTyJHqDcgD+BZE2ceRvrTGgA2S0gWIkSKURF9iR/5U0oMembB5KQguIoJHznlEAFNodAh4kexUlZEUEYTyCOEhgOmlt6RSMJSpRSIzgp7zlAIm24IgIrWEtswYKx24CkSF1slpgoqU/7UyWR0oQdCBEDzRJU1dpdIDaczX1BKiITlVeKjrkhCTVcz4gR4BqCMYIVkz2hCvY2AYapSMKB0w3hNrCEHS1waZBzIZCAOPGkKwPeZFL+nyeEBoSmGIcojzAaMUWo40ggrILLjZAbE9Sq9LRREFxqfSDCk0ItPkdYVV4LQgCMikpNACHwXW2udnbsuCAKHVXqRc0lTjsIKMPO20neLBR6/EM1JNPpIRHh16RaBTBULfobykZRUto6kX+mR1idr5l6i/v4WwZi12wxsoL78Gs+FK8rXr6aiMWryJWFXIqobokqfPIAlbx/kFxOyziI1vx8lJpHQgA0WICFHj4oAxqcFGsBlESxn6OOWpsxwbypftI5VC0/cO4aDtkihRFRWVD0QRmHCBEGocChslNaBcjaQmOCjGFcF5nLfPW7coJZKPWkz2KZ6AlJFQOfqjZJLJNS4ahBimZJJMvtVCBjJL+ubnEq0DPq3+IICNPmWWosAgGLYKgveIqmbgHFIp+nXAqIDUJV6rdHPHSBQiCVETUT4gaqhbLaoYyYUniwFZ+2QNrAzeyeQ4GRkJi0v0IOAt1CIQVaDtCowPKOXTDE6nWY3zEOqI1IKhiMQI4zIFqTKm99gJgzI1wQaChehDej2ZYpgDxqSltCBHbpVeaiqlsNHha8/4mKFwEuUj1eh42QIfHFVwGCfJNFB6ogedJz1gJwMqSgoXsTEwHL2vi9Y7MibtGN1OeiohRISL5FGjpaIWgcFyJkhHvuTqlNN2y/HpJWVPDivIZJve84Xqb770vrisW8CJ8b5hwghKU+MUWBNxUuK8QOuMshoge13M1ieQz24j3HkLwzPOI2x4M+KsS5EXX04YX0mYmAAC3s0RixasXoXQbSIWg0FYYBQylEw3ShQ1pSW5HY4bch/JD3WJZcCKcWzpMNlLr5lVaCPrhefL9GOWzm2ioIVkqPP0aBT1qKiO1D7hZbJ1qW0SrgokO1EtUrWq10iXbr6BDWQmorL08K8iKOXISokXAimSl3cpqvR0F6mmZjiIyMKkz1gEgvC4kIwzTYwUMqO2Q1SWQ1BU3lOoyNAHCiTSB6qQyo2jSLG4cslI0sSRC6QfYkNKkRsE6AwNSOexPvVlWZ1i+KJ6ipTJFoRcwqB8/iEXJESliAKU9WgL43QAT+kdLgSi8GgNJnpy5+nWKQ2vjERkKWDHEMh9CirCa3zlUvLNpGWy8R5Nmpn5gaV0kBuB1+CVIMrU/jEtFWWEqCMuBmSAKCUBTyQJYg20SQXpPrl8FVoiPJQuYD1Ykf5vDKBdCl5KgTBgjEhv5jIRPTC5Yskmb4cVZMwlb70zStKNlx/u0I4uUVsWSPYgwQakgkLUmOgZhj45oFRE6kCMAbevwu8/SP3UA8jpNpz3NuR5lyEvfRvqzA2IYhohIiEmTRchTHpzFmdtIxyCjIglR8ztwc0cotz2EO6pR7D3/h16OMNk7um/jKpWnkmEaGFFRYyBQUyzBSVSN/SkEJTOMwjJx0uI5NWUy4iWguEwtaALlap5y0ogY0DGGhklTlmEl5ALnAi0VIYMlkxFZKxxUSKzdPNq9489SVFACBFfOowRRJMEwiSpJF8IQY1DRlDeJVvVDDJIjgNSUEbQok0QAR89EMhFQD2fIRRI5zEqrYCGMaJTNCeoSJ4pKueRyqC8RvlADAEhIiIGZC1YGBULygjRgggeJQRKgM4Ee10PIdPelBwVkQokMULtJTpzaCHIY8RHSy3SnhsoNBrpFAGP0DF1vVceE6GVKaKJdAeBmEPMNG5gwULWyvC+pLQW3WoxFDUuh9yAiwIbkxJSiNCyGp8ZLBW198mN4AUlAiGmgC8jI89wwRCXygikYFn3fT2o1afvXOp/P6wgI6ZOOigm8zn61dRyy2+qYEBJxvNIHT2V81jn0dJArfE6w0dLdI6AxY1sTUVpqfcOsHu/THbXrRQn/QVywybkle8kXHgFfuVKggy01RRBBkpV0aYFjNbMO7ZSP/0kfudD1N+8j+G2rbT27SSTOaE6xFwu6QoYfxnNsKGbI8j0FJYIOkIipKAOnsp6YlbhRfIhagmFHvk3Re9xEbJCAmIkdRBHd5J7XlW+AvIsNXANypoVWlEIhWNIz0NWBKIMGJGCTB2gpyFkEllk1FWJNElrOEQooqBQBUPpmMUyphXRg69AZApqj/GpmrgLtBiQkUzdokzjsTFJSigMUhRo5/GmJqT1GEGCk6CcxwrIo8P4NGMLMgk26SjTPhUaLQW51sgY8MFSx5BmbDIyobLnn/ZeBsrg8T5db54J8myMOjjmXZVmF4ARAhE9PnqEyjExeXMH0tItRuiHQM9FThmb5lDdoyKZCuZEYIAXUCSNL2Q+CtwRDBrnBT4GWlnO0HbRZvTAcmlZqaUkiIg3graEuk49Z8qkD9V7T4gRbEQv11pilATRZ138MPzfJR1y2COd+ZEN97sHH79CTBzJ0UfOi7NLL0cIi5Wro+Nf8BQF6MaU6ShGS79+exJ7xgVMXPFWpja+nurcTeSdFvgBCzu3Un7zEbJtj5Ft30LctYNybvdRu7aGhmPBMckuOQhzsOITt2/KLr/23qUccthyxPmb3vMFe9/jVzBKnS73jOaleCnfohZpj0Wo0bR7OE988l76ex8n3LkCf86VFBFir0+5Zw925gDSdSEM8NbxT3qWNDR8FxMrEKcWM/qCN9631GMOO8iYK669TeQf+VX8kRx9/HgpyZQYIyaMUqoSlNZkGox1qLkuZr7LwWd3gBZpnVxHcgGqgCAFlUpp0IaG1xwSBBMLsj225BzXYbdzqrMveUS+buXOJPF1uEefOESd2gd8gNpJrM/xagyfj1OZMVbEnDxmIBQ2h7oFTmmcVfiXLT9qaPguRAJaIMzJ+w/3sMNCTa3u6Qs33R1LTuggs6iFsvjzYj2agEZphdECRQ2hT3A96rpLWfcoRaB0Fls7lIO2h7GomdQF0632cl9eQ8PxxwED0Rv7hV/+z4dz2BEJUxQ3/cifi05KHS57wcwREsvUnRxFxAlwAjCQZZIiU9TCUo8KtKJMtR79umR20GOu10xlGl57xD6IqcmF4urvX5KA+CJHFGSyq266RZ122tZ4/J0yl8xL6djGCBqPCB5voaqTkr4NUEdFFRQTUdCJqc5CAEEqojQYk9PpNDOZhtcesQZ12qmHnVY9oiAjW2Mhu+p7viRGOfMTle8UaBb1aGIukEaRK8GEhGkFk0JQxBR1bJTEqNBBY0SGChCDxYmKWjYzmYbXGDYlU7LrP/BXh3voES923LNPnDHz/Rsepw5jYpxj3pV9uHUyDQ2vdY5mnUzogkD1pj//2Aa99oIdh3PsESeh9doLdsz9xJvvrb5213Vi7EjPsnSOSWFRQ0PDyxNJwmWXXbj5cAMMvEK3gs5P/ZefxTCI5Ss9U0NDwwmLS8mP9o//yq8eyeGvKDSYizY9kl3+xvviAq/aLFNDQ8NLICEOQZ25Zmt2+bW3HeEpXhljP/u7Py1yBgxpAk1Dw3cTAvCp7ab1fT/1MTm+4uXl+L4DrzjImIs2PZK9/Yb/5w8ejbM1NDScMKiR1OaZZ25uve8n/+BIT3NUwsL4r/35h+TK1kw4kAbW0NDwKmckCxsDg/aP/affkp3JlxEveclTvXLUitW99od/6dfD7GjZ1MxoGhpevSxa0e4Dddb67e1//pN/9kpPd9Q4+N6zH3bf2HqxWnu0z9zQ0HDc0BBnIcwxmP6rW6/Prrj+7ldyuqM655j6/b99l5xgEOaO9pkbGhqOCyNXiLALWje+/Y5XGmAWT3nU0Keft7Pzi7/+S/hR7Uwzm2loeHURwR8Cdd7E3vHf+fx7jsYpj/p8o/PDv/S7+fdc+5XYgxPBn6mhoWHpxD6InMHE7336+2T7yDd7X8gxWdRM/MZn32suPPehMD/6QxNoGhpOfBwwYND+0L/+o/yKG+48Wqc9Zre/2739lLkf23RPeGbfOrFq9EpN+1FDw4mHAAKEGTCXXvDA9CefuPxon/6YYbfcf+HsBzfdEwduQq4e/bEJNA0NJw6jCBAOgVwztXvFJx/foFedNnc0X+KY5oDM+W/YPPWnX7lWtFUv7CNdULN0amg4MRjd/WE/yBXFzIr/ec+mox1g4Djd8nbzPRfPfXDTPaFLW75u9Mfl9PNtaHitsxhgdoFYVcxMf/rhS/Tp5y3ZFfIIXurYYi7c9MjUzf/wBjHVmgnPkJZMTR1NQ8PysLhE2gFiupiZ/syjG49VgIHjeKubc67YPP3FJy5QF5z1WNgF0dEsnRoajjejTV6/A+SaFbunP/fYRr3mnGNqh3pc5xP65HX7pz/zwGX5ddf+TZxjEBflIZpg09BwfCjB7wO98dyHpj/3yEa95uxj7rd83BctsjPppv7o9veM/Ydf+VWk6oWDJDf2kX98Q0PDUWZx/2UBYsWguOndf7niE3e/Wa06feZ4vPyy3tb1A1+5auHnPvhJt2XfOjkFYoL0hjRp7oaGV85olRCHqQZGrcrnxv7j7/xM6/0f/vjxHsay4hdmisFHf+IPB5+5+QOxT1uuAtEiBZom2DQ0HD6Ld3WAMAt0GajXr98+9V8/9169fuP25RrOslM/+rXX937z3/43e//DF6NoyxUkL4XRRlVDQ8MSkCRn1CHEGRDTeqHz4V/8zc6//LWPLNeQTpggs0j11Ztv6v32z/623/LsGdHQFu3RzEaSgk0zu2lo+FYESZHSpQZH+sAEg+LGH/hU59/91s+p1WsPLvfwTkjKO/76nYPf/8XfdE8+cT4l7WhAjgEZKdA0s5uG1zqLyZJqtKkbQE4yKG74gU+1/81HfkGfsm7/cg8RTuAgs4h79okzeh/7+d9yD95zVdi/f10YgihGAWdRT1i86Hcz22n4bmKxuTjyj9sHHkIf4gDkOAP1utN35jf+0CfaP/QzvyNXnHxCudSf8EFmkdCby+p/+Mo19V23Xm8fuvU6/9SzF4euRbRAKFJUX/xN+i1GWqVIUht74FV0xQ0NI+/2MPpxoyJWC3LcIM9Y94ja+LY7Wjd94NP5VTfesbwj/ad5Vd5yYdiV/pknz3VbN1/oHrjtervtoUvDrh1XhdkapAMREUJCyyBaErwldB1UHqJf7uE3NCyNxZmLbCGnit1qzZrd5vIbbzGXvPVr8rQzdqjTz9ou2xNHRVjqWPKqDDIvxj77xBlxdv/q0O1OCFsW0VlN9DraKvPPbrkg7JmdkidPLsg167eFvc+cGathgfdH7APe0HBcsFWmN775LnPxW+6U41NzcvrEWgY1NDQ0NDQ0NDQ0NDQ0NDQ0NDQ0NDS8Rvn/bjxxWMvYwq4AAAAASUVORK5CYII=;" parent="1" vertex="1">
          <mxGeometry x="700" y="549" width="101.29" height="62" as="geometry" />
        </mxCell>
        <mxCell id="DelK7SGpGhtC1EvrEMCJ-2" value="" style="edgeStyle=orthogonalEdgeStyle;rounded=0;orthogonalLoop=1;jettySize=auto;html=1;" edge="1" parent="1" source="DelK7SGpGhtC1EvrEMCJ-1" target="ysFUDAWnv2JTuTBk0uLM-13">
          <mxGeometry relative="1" as="geometry" />
        </mxCell>
        <mxCell id="DelK7SGpGhtC1EvrEMCJ-1" value="IAM Role =&amp;nbsp;mailforwardingrule" style="sketch=0;outlineConnect=0;fontColor=#232F3E;gradientColor=none;fillColor=#DD344C;strokeColor=none;dashed=0;verticalLabelPosition=bottom;verticalAlign=top;align=center;html=1;fontSize=12;fontStyle=0;aspect=fixed;pointerEvents=1;shape=mxgraph.aws4.identity_access_management_iam_roles_anywhere;" vertex="1" parent="1">
          <mxGeometry x="459.5" y="720" width="78" height="78" as="geometry" />
        </mxCell>
      </root>
    </mxGraphModel>
  </diagram>
</mxfile>
